<?xml version="1.0" encoding="utf-8"?>
<!-- Generator: Adobe Illustrator 16.0.0, SVG Export Plug-In . SVG Version: 6.00 Build 0)  -->
<!DOCTYPE svg PUBLIC "-//W3C//DTD SVG 1.1//EN" "http://www.w3.org/Graphics/SVG/1.1/DTD/svg11.dtd">
<svg version="1.1" id="Layer_1" xmlns="http://www.w3.org/2000/svg" xmlns:xlink="http://www.w3.org/1999/xlink" x="0px" y="0px"
	 width="140px" height="110px" viewBox="0 0 140 110" enable-background="new 0 0 140 110" xml:space="preserve">
<path fill="#FFFFFF" d="M135.42,60.26c-0.14,0.101-0.279,0.19-0.42,0.29l-51.795,38.9l-8.32,5.55V5l8.32,5.55L135,49.45
	c0.141,0.1,0.28,0.19,0.42,0.29C139.44,52.71,139.44,57.29,135.42,60.26z"/>
<path fill="#FFFFFF" d="M135.42,60.26c-0.14,0.101-0.279,0.19-0.42,0.29l-51.795,38.9c-4.58,3.05-8.32,1.05-8.32-4.45V15
	c0-5.5,3.74-7.5,8.32-4.45L135,49.45c0.141,0.1,0.28,0.19,0.42,0.29C139.44,52.71,139.44,57.29,135.42,60.26z"/>
<rect x="14.885" y="85" fill="#FFFFFF" width="60" height="20"/>
<rect x="29.885" y="5" fill="#FFFFFF" width="45" height="20"/>
<rect x="34.885" y="45" fill="#FFFFFF" width="40" height="20"/>
<circle fill="#FFFFFF" cx="29.885" cy="15" r="10"/>
<circle fill="#FFFFFF" cx="34.885" cy="55" r="10"/>
<circle fill="#FFFFFF" cx="14.885" cy="95" r="10"/>
<path fill="#FFFFFF" d="M89.885,60v30h-25v-5c5.52,0,10-4.48,10-10s-4.48-10-10-10v-5H89.885z"/>
<path fill="#FFFFFF" d="M79.885,15v40h-35V45c5.52,0,10-4.48,10-10s-4.48-10-10-10V15H79.885z"/>
</svg>
